<svg width="36" height="36" viewBox="0 0 36 36" fill="none" xmlns="http://www.w3.org/2000/svg">
<rect width="36" height="36" rx="18" fill="#6F75EB"/>
<path d="M12.4431 17.4763C12.1538 17.1798 11.679 17.1739 11.3825 17.4632C11.086 17.7524 11.0802 18.2273 11.3694 18.5237L15.4319 22.6878L15.9653 23.2346L16.5022 22.6912L24.9319 14.16C25.2231 13.8653 25.2202 13.3905 24.9256 13.0993C24.6309 12.8082 24.1561 12.811 23.8649 13.1057L15.9722 21.0935L12.4431 17.4763ZM30.25 18C30.25 24.7655 24.7655 30.25 18 30.25C11.2345 30.25 5.75 24.7655 5.75 18C5.75 11.2345 11.2345 5.75 18 5.75C24.7655 5.75 30.25 11.2345 30.25 18Z" stroke="white" stroke-width="1.5" stroke-linecap="round"/>
</svg>
