<svg width="36" height="36" viewBox="0 0 36 36" fill="none" xmlns="http://www.w3.org/2000/svg">
<rect width="36" height="36" rx="18" fill="#6F75EB"/>
<path d="M13.4485 12.6242C13.1556 12.3313 12.6807 12.3313 12.3879 12.6242C12.095 12.9171 12.095 13.392 12.3879 13.6849L16.703 18L12.3879 22.3151C12.095 22.608 12.095 23.0829 12.3879 23.3758C12.6807 23.6687 13.1556 23.6687 13.4485 23.3758L17.7636 19.0607L22.0788 23.3758C22.3717 23.6687 22.8465 23.6687 23.1394 23.3758C23.4323 23.0829 23.4323 22.608 23.1394 22.3151L18.8243 18L23.1394 13.6849C23.4323 13.392 23.4323 12.9171 23.1394 12.6242C22.8465 12.3313 22.3717 12.3313 22.0788 12.6242L17.7636 16.9393L13.4485 12.6242ZM30.25 18C30.25 24.7655 24.7655 30.25 18 30.25C11.2345 30.25 5.75 24.7655 5.75 18C5.75 11.2345 11.2345 5.75 18 5.75C24.7655 5.75 30.25 11.2345 30.25 18Z" stroke="white" stroke-width="1.5" stroke-linecap="round"/>
</svg>
