<svg width="18" height="18" viewBox="0 0 18 18" fill="none" xmlns="http://www.w3.org/2000/svg">
<path d="M2 1.4H7.17241C7.50378 1.4 7.77241 1.66863 7.77241 2V10.4348C7.77241 10.7662 7.50379 11.0348 7.17241 11.0348H2C1.66863 11.0348 1.4 10.7662 1.4 10.4348V2C1.4 1.66863 1.66863 1.4 2 1.4ZM11.1034 1.4H16C16.3314 1.4 16.6 1.66863 16.6 2V3.75652C16.6 4.08789 16.3314 4.35652 16 4.35652H11.1034C10.7721 4.35652 10.5034 4.08789 10.5034 3.75652V2C10.5034 1.66863 10.7721 1.4 11.1034 1.4ZM7.17241 16.6H2C1.66863 16.6 1.4 16.3314 1.4 16V14.3826C1.4 14.0512 1.66863 13.7826 2 13.7826H7.17241C7.50378 13.7826 7.77241 14.0512 7.77241 14.3826V16C7.77241 16.3314 7.50379 16.6 7.17241 16.6ZM10.5034 16V7.70435C10.5034 7.37298 10.7721 7.10435 11.1034 7.10435H16C16.3314 7.10435 16.6 7.37298 16.6 7.70435V16C16.6 16.3314 16.3314 16.6 16 16.6H11.1034C10.7721 16.6 10.5034 16.3314 10.5034 16Z" stroke="white" stroke-width="0.8"/>
</svg>
