<svg width="19" height="18" viewBox="0 0 19 18" fill="none" xmlns="http://www.w3.org/2000/svg">
<path d="M9.21538 9.59797L7.34057 7.93001H4.7627V8.58528C6.35629 8.72825 8.39515 12.219 9.21538 13.9466C10.7152 10.8966 15.0351 5.3288 17.0076 2.92615H14.5469C13.797 3.06912 10.6801 7.4336 9.21538 9.59797Z" fill="#39B54A" stroke="#39B54A"/>
<path d="M11.2466 1.85831C11.3536 1.89194 11.451 1.92684 11.538 1.96207L12.6399 0.864819C12.0177 0.33369 10.6135 0.0572861 9.28267 0.00804191C7.75981 -0.0483079 6.08932 0.28862 4.751 1.01743C3.343 1.78418 2.23104 2.8137 1.36921 4.16558C0.470495 5.57532 0.0718324 6.83396 0.0301003 7.50929C-0.212243 11.431 1.65745 15.6453 5.2588 17.2166C6.03807 17.5566 6.75184 17.7419 7.25318 17.8113C10.2893 18.494 13.1296 17.1611 14.1702 16.4092C16.7166 14.7024 17.6797 11.9593 17.8429 10.8011C18.2347 9.14298 17.8021 6.89971 17.5369 5.98533L16.3126 7.50929C16.7044 8.77723 16.4759 10.2321 16.3126 10.8011C15.1863 14.7999 11.8849 16.206 10.375 16.4092C5.82081 17.3358 3.09067 14.1131 2.29488 12.386C1.88531 11.6722 1.63882 10.953 1.51815 10.246C0.659703 5.21645 6.37866 0.329472 11.2466 1.85831Z" fill="white"/>
</svg>
