<svg width="18" height="18" viewBox="0 0 18 18" fill="none" xmlns="http://www.w3.org/2000/svg">
<path d="M2.49233 10.8V10.4H2.09233H1C0.66863 10.4 0.4 10.1314 0.4 9.8V9.16205C0.4 9.00115 0.46462 8.847 0.579349 8.7342L8.89575 0.557673L17.4155 8.73625C17.5334 8.84939 17.6 9.00571 17.6 9.16909V9.8C17.6 10.1314 17.3314 10.4 17 10.4H16.2164H15.8164V10.8V16.9714C15.8164 17.2496 15.7079 17.3865 15.593 17.4678C15.4574 17.5638 15.282 17.6 15.1703 17.6H12.5087C12.1773 17.6 11.9087 17.3314 11.9087 17V14.137C11.9087 13.5652 11.7136 12.9291 11.1873 12.5327C9.64937 11.3741 7.8331 11.7391 6.88406 12.663C6.51828 13.019 6.43008 13.5117 6.43008 13.9104V17C6.43008 17.3314 6.16145 17.6 5.83008 17.6H3.66245C3.10829 17.6 2.82061 17.45 2.67588 17.3184C2.52584 17.1819 2.49245 17.0332 2.49233 16.9713C2.49233 16.9712 2.49233 16.9712 2.49233 16.9711L2.49233 10.8Z" stroke="white" stroke-width="0.8"/>
</svg>
