<svg width="36" height="36" viewBox="0 0 36 36" fill="none" xmlns="http://www.w3.org/2000/svg">
<rect width="36" height="36" rx="18" fill="#6F75EB"/>
<g clip-path="url(#clip0_10823_54368)">
<path d="M7.90381 14.3653V16.7884H28.0961V14.3653H7.90381Z" fill="white"/>
<path d="M7.90381 14.3653V12.1345C7.90381 11.5822 8.35152 11.1345 8.90381 11.1345H27.0961C27.6484 11.1345 28.0961 11.5822 28.0961 12.1345V14.3653M7.90381 14.3653V16.7884M7.90381 14.3653H28.0961M15.9807 21.2307H11.1346M11.1346 19.6153H18.8077M28.0961 16.7884V23.8653C28.0961 24.4176 27.6484 24.8653 27.0961 24.8653H8.90381C8.35152 24.8653 7.90381 24.4176 7.90381 23.8653V16.7884M28.0961 16.7884H7.90381M28.0961 16.7884V14.3653" stroke="white" stroke-linecap="round"/>
</g>
<defs>
<clipPath id="clip0_10823_54368">
<rect width="21" height="21" fill="white" transform="translate(7.5 7.5)"/>
</clipPath>
</defs>
</svg>
