<svg width="36" height="36" viewBox="0 0 36 36" fill="none" xmlns="http://www.w3.org/2000/svg">
<rect width="36" height="36" rx="18" fill="#6F75EB"/>
<path d="M23.2498 20.0192V22.8461M23.2498 25.673V22.8461M23.2498 22.8461H26.4805M23.2498 22.8461H20.4229M10.9229 26.4807H15.3844C15.9367 26.4807 16.3844 26.033 16.3844 25.4807V21.423C16.3844 20.8707 15.9367 20.423 15.3844 20.423H10.9229C10.3706 20.423 9.92285 20.8707 9.92285 21.423V25.4807C9.92285 26.033 10.3706 26.4807 10.9229 26.4807ZM20.6152 16.7884H25.4805C26.0328 16.7884 26.4805 16.3407 26.4805 15.7884V11.7307C26.4805 11.1784 26.0328 10.7307 25.4805 10.7307H20.6152C20.0629 10.7307 19.6152 11.1784 19.6152 11.7307V15.7884C19.6152 16.3407 20.0629 16.7884 20.6152 16.7884ZM10.9229 16.7884H15.3844C15.9367 16.7884 16.3844 16.3407 16.3844 15.7884V11.7307C16.3844 11.1784 15.9367 10.7307 15.3844 10.7307H10.9229C10.3706 10.7307 9.92285 11.1784 9.92285 11.7307V15.7884C9.92285 16.3407 10.3706 16.7884 10.9229 16.7884Z" stroke="white" stroke-linecap="round"/>
</svg>
