<svg width="50" height="50" viewBox="0 0 18 18" fill="none" xmlns="http://www.w3.org/2000/svg">
<g clip-path="url(#clip0_10823_54303)">
<path d="M9.57063 1.05066L10.8647 5.03344C11.0521 5.61027 11.5897 6.00081 12.1962 6.00081H16.3839C16.9652 6.00081 17.2068 6.74458 16.7366 7.08622L13.3487 9.54772C12.858 9.90422 12.6527 10.5361 12.8401 11.113L14.1342 15.0957C14.3138 15.6485 13.6811 16.1082 13.2109 15.7666L9.8229 13.3051C9.33222 12.9486 8.66778 12.9486 8.1771 13.3051L4.78914 15.7666C4.31892 16.1082 3.68623 15.6485 3.86584 15.0957L5.15992 11.113C5.34735 10.5361 5.14203 9.90422 4.65134 9.54772L1.26339 7.08622C0.793163 6.74458 1.03483 6.00081 1.61606 6.00081H5.8038C6.41032 6.00081 6.94786 5.61027 7.13528 5.03344L8.42937 1.05066C8.60898 0.497871 9.39102 0.497869 9.57063 1.05066Z" stroke="white" stroke-width="0.8" fill="#4769FB"/>
</g>
<defs>
<clipPath id="clip0_10823_54303">
<rect width="18" height="18" fill="white"/>
</clipPath>
</defs>
</svg>
